<svg id="Layer_1" data-name="Layer 1" xmlns="http://www.w3.org/2000/svg" viewBox="0 0 1697.21 954.7"><defs><style>.cls-1{fill:#282c5c;}.cls-2{fill:#aadff1;}.cls-3{fill:#f04347;}.cls-4{fill:#fec077;}.cls-5{fill:#fdc077;}</style></defs><path class="cls-1" d="M248.35.32H1596c-.18,1.42-1.21,2.35-2,3.43-43.75,62-93.12,119.11-149.4,170.12a630.09,630.09,0,0,1-80.17,62.22c-27.48,17.84-56.27,33-87.42,43.53a255.91,255.91,0,0,1-57.88,12.67,293.48,293.48,0,0,1-32.08.89c-20-.3-39.86-1.35-59.74-2.92-25.75-2.05-51.39-5-77-8.52-31.81-4.38-63.46-9.68-95-15.65-53-10-105.56-21.68-158-34.15q-66.54-15.83-133-31.76a13.16,13.16,0,0,0-6.3-.12c-21.57,5.26-43.53,7-65.65,7.22-.64-1.67-.79-4-3-4.11s-2.83,2-3.66,3.61a3.92,3.92,0,0,0-.16.36c-6.44-.18-12.9,0-19.32-.73a21.89,21.89,0,0,0-2-2.44c-1.54-1.37-2.31-1.2-3.38.58a10,10,0,0,0-.57,1.47l-30-2.77c-9.45-.87-18.92-1.69-28.44-1.05a57.69,57.69,0,0,0-24.46,7c-9.43,5.22-15.45,12.94-17.77,23.56-1.31,5.92-1.49,11.92-1.7,17.94a9.1,9.1,0,0,0,1.89,5.92c5.92,8.43,11.89,16.84,17.59,25.42,10.71,16.09,19.83,33,26.23,51.31a175.15,175.15,0,0,1,9.28,49.5c0,1.61-.1,3.21-.14,4.81-.24,13.73-2.18,27.19-7,40.09-13.41,36-39.31,59-75.06,71.58-9.13,3.22-18.63,4.65-28.19,5.78-1.74,0-3.48-.12-5.22-.12a77.1,77.1,0,0,1-21.4-3c-19.29-5.46-34.89-16.57-48-31.48-.89-1-1.46-2.46-3.12-2.91a9.06,9.06,0,0,0,0,1.42,69.31,69.31,0,0,1-1.73,29.43c-4.16,15.5-11.88,29.2-21.41,41.95a120.84,120.84,0,0,1-8.39,10.27c-1,1.06-1.8,1.44-2.93.19a14.71,14.71,0,0,0-2.46-2.05c-4.14-2.92-8.63-4.85-13.82-4.66-4.29.17-5.86,1.47-6.31,5.66a59.55,59.55,0,0,0-.22,8c.26,10.34,2,20.51,3.83,30.65,1.11,6.31,2.36,12.61,3.55,18.91-4.34-2.77-8.62-5.61-13-8.32-2.34-1.43-4.35-3.41-7.07-4.18l0,0c0-.61-.44-.74-.93-.82-.8-1.38-1.67-2.72-2.4-4.15-8.22-15.93-16.28-31.94-24.65-47.8C194.49,480.72,160.28,420.29,126,359.92c-7-12.32-13.88-24.73-20.83-37.1a11.69,11.69,0,0,1-1.66-8.42c1.21-6.16,2.13-12.39,3.13-18.59a64.35,64.35,0,0,0,1.1-15.17c-.39-4.9-1.74-6.5-6.48-7.88a143.86,143.86,0,0,1-15.45-5.6,3.2,3.2,0,0,1-2.23-3.31c-.12-4-.4-8-.78-12a111,111,0,0,0-3-19A19.24,19.24,0,0,0,77.85,228c-.68-1.15-1.45-2.36-3-2.21s-2.1,1.43-2.54,2.75a17.89,17.89,0,0,0-.66,5.15c-.1,6.6,1,13.06,2.07,19.54a7.41,7.41,0,0,1,.08,4.2c-1.1-1.83-1.93-3.17-2.73-4.54a156.62,156.62,0,0,0-11-16.77,22.09,22.09,0,0,0-5.34-5.4c-2.06-1.33-3.37-.62-3.39,1.8a21.14,21.14,0,0,0,1.83,7.77,187.26,187.26,0,0,0,11.95,25c1.05,1.89,1.13,3.29-.32,5-1.79,2.15-3.25,4.59-4.85,6.89-2.85,4.08-3.11,8,.32,12,2,2.34,3.49,5.07,5.35,7.54Q74.89,309,84.34,321.27a11.48,11.48,0,0,1,2.48,5.37c4,25.9,8.67,51.7,13.7,77.42,3.94,20.13,9,39.91,17,58.87,4.58,10.85,9,21.73,13.56,32.6A8.93,8.93,0,0,1,128,493c-3.39-3.43-6.79-6.84-10.12-10.32-19.47-20.35-37.36-42-52.59-65.74-14.75-23-26.63-47.33-33.5-73.9-7.12-27.56-7.94-55.23-1.13-83,5.37-21.84,14.93-41.75,27.57-60.27,9.93-14.55,21.09-28,35-38.95q13.91-10.92,28.71-20.57c21.41-14,43.59-26.68,65.17-40.38,15-9.54,29.89-19.37,43.19-31.3,8-7.17,15.42-14.86,20.63-24.42q11.15-20.47-.84-40.42C249.37,2.72,248.18,1.83,248.35.32ZM444.7,234.22c.54-.38.72-.42.74-.52.41-1.27.79-2.55,1.18-3.83a38.48,38.48,0,0,1,12.68-18.65,61.24,61.24,0,0,1,11.86-7.48c11.72-5.83,24.23-8.39,37.22-8.72,15.31-.4,30.44,1.78,45.61,3.36,13.32,1.39,26.65,2.49,40,2.8a304.3,304.3,0,0,0,37.7-1.7,107.89,107.89,0,0,0,17.47-2.72c-2-.51-3.23-.89-4.53-1.17-13.82-3.1-27.64-6.25-41.5-9.23-28.63-6.16-57.33-11.9-86.49-15.06-15.46-1.68-30.9-3-46.45-1.43a76.91,76.91,0,0,0-18.77,4c-12.61,4.57-19.91,14.19-18.48,30.61C433.93,215.44,439,224.86,444.7,234.22Z" transform="translate(98.75 -0.3)"/><path class="cls-2" d="M592.36,207.28c22.13-.19,44.08-2,65.65-7.22a12.79,12.79,0,0,1,6.3.12q66.51,15.94,133,31.76c52.42,12.47,105,24.13,158,34.15,31.53,6,63.19,11.26,95,15.65,25.58,3.53,51.24,6.47,77,8.52,19.88,1.57,39.79,2.62,59.75,2.92a293.48,293.48,0,0,0,32.08-.89A256.07,256.07,0,0,0,1277,279.62c31.15-10.48,59.94-25.69,87.43-43.53a631.51,631.51,0,0,0,80.17-62.22c56.27-51,105.65-108.1,149.4-170.12.76-1.07,1.79-2,2-3.43,1.33,0,2.51-.49,2.51,2-.14,34.55-.1,69.11-.1,103.66V295.25c-8.66.37-17.27,1.28-25.88,2.17-5.31.56-10.59,1.21-15.89,1.78-8.23.88-16.35,2.31-24.52,3.59-12.24,1.92-24.4,4.29-36.52,6.87q-22.9,4.89-45.5,11-25.93,7-51.34,15.64c-17.94,6.17-35.62,13-53.2,20.18-28,11.44-55.23,24.58-82.1,38.43-14.37,7.42-28.51,15.27-42.65,23.15-19.73,11-39.14,22.55-58.65,33.92-12,7-23.8,14.38-35.81,21.35-15,8.71-30,17.58-45.17,26-16.84,9.35-33.72,18.63-51.08,27q-19.32,9.3-39.19,17.43-17.46,7.14-35.43,12.77a373.14,373.14,0,0,1-50.14,12.09c-9.73,1.65-19.51,2.8-29.31,3.8-12.25,1.22-24.58,1-36.88.85-6.93-.08-13.83-.92-20.75-1.35-7.74-.5-15.37-1.63-23-2.7s-15.49-2.71-23.18-4.36A306.62,306.62,0,0,1,720.92,549a322.81,322.81,0,0,1-38.14-18.7,381.43,381.43,0,0,1-45.13-30.5c-8-6.23-15.69-12.87-23.27-19.62-9.89-8.81-19.55-17.86-28.87-27.28a13.38,13.38,0,0,0-1.61-1.15c.26-2.66.47-5.32.78-8,1.14-9.54,2.44-19.06,3.48-28.6,1-9,1.71-18.07,2.63-27.1C592,376,593,363.89,594,351.79c.36-4.66.47-9.35.91-14,1-11,1.41-22.11,2.11-33.17a22.65,22.65,0,0,1,1.66-7.75,241.84,241.84,0,0,0,10-27.08,30.53,30.53,0,0,0,1.45-9.86,3.4,3.4,0,0,0-2.3-3.35c-5.75-2.53-11.42-5.23-17.15-7.84-3.29-1.49-3.25-1.45-2.53-5C590.57,231.75,593.06,219.69,592.36,207.28Z" transform="translate(98.75 -0.3)"/><path class="cls-2" d="M248.35.33c-.17,1.51,1,2.41,1.69,3.5q12,20,.85,40.42c-5.21,9.55-12.61,17.26-20.63,24.43C217,80.59,202.11,90.42,187.07,100c-21.57,13.69-43.76,26.4-65.17,40.38Q107.1,150,93.19,160.92c-14,11-25.1,24.41-35,39-12.64,18.5-22.22,38.42-27.58,60.26-6.82,27.76-6,55.43,1.14,83C38.56,369.71,50.45,394,65.2,417c15.22,23.76,33.12,45.38,52.6,65.74,3.33,3.48,6.73,6.9,10.11,10.33A9.3,9.3,0,0,0,131,495.6c4,9,7.87,18.14,12.18,27,2.86,5.9,4,12.13,4.88,18.47-3.16,7.07-6.49,14.08-9.45,21.23a547.9,547.9,0,0,0-20.75,58.91c-3.91,13.87-7.4,27.82-10.24,42-2,10.19-3.71,20.44-5.33,30.7-.82,5.26-1.36,10.58-1.75,15.88-.31,4.39-.64,8.8-1.08,13.16-.75,7.45-.91,14.91-1.23,22.35a288.47,288.47,0,0,0,.48,29.25c.34,5.73.56,11.49,1.15,17.18,1,9.39,2.16,18.77,3.74,28.1a384.73,384.73,0,0,0,11.13,47.88A400.56,400.56,0,0,0,140.48,932c3.91,7.75,8.15,15.34,12.25,23H-98.75V.34Z" transform="translate(98.75 -0.3)"/><path class="cls-3" d="M446,743.65c1.65,2.3,3.86,4.07,5.83,6q10.09,10.06,19.62,20.68c9.61,10.67,11.52,22.84,7.77,36.28-2.37,8.5-6.13,16.45-12.28,22.74s-7.76,13.52-7.84,21.59a96.19,96.19,0,0,0,1.72,19.18c4.61,23.72,4.38,47.62,3.18,71.58-.23,4.41-.21,8.83-.31,13.24H285.31c1-6.2,2.13-12.38,2.95-18.62.54-4.09,1.18-8.17.65-12.38-1.43-11.24-4.9-21.92-8.74-32.48-9.79-27-21.86-52.89-34.45-78.62-2.11-4.32-4.19-8.66-6.28-13,5.77.44,10.71-1.89,15.49-4.67A79.19,79.19,0,0,0,276.77,776c11.81-14.75,18.14-31.7,19.64-50.36,1.3-16-1-31.71-5.86-47-1.58-5-2.09-4.84,3.68-4.84l72.24,0,.87,0a2.16,2.16,0,0,0,.62.09,2.4,2.4,0,0,0,1,1.61q17.44,15.35,34.87,30.72C415,716,425.91,726,437.08,735.7,440.1,738.31,442.63,741.45,446,743.65Z" transform="translate(98.75 -0.3)"/><path class="cls-4" d="M446,743.65c-3.38-2.2-5.92-5.34-8.93-8C425.92,726,415,716,403.88,706.11Q386.51,690.69,369,675.39a2.43,2.43,0,0,1-1-1.61,8.9,8.9,0,0,1,.81-1.8c10.62-13.91,21.36-27.75,31.9-41.73,20.51-27.23,40.81-54.61,59.71-83,8.75-13.13,17.24-26.4,23.14-41.18,12.68-31.77,25.59-63.45,38.34-95.2,2-4.94,4.4-9.75,5.67-15a6.9,6.9,0,0,0,1.49-2.8q19.53-48.12,39.13-96.22a9.85,9.85,0,0,0,.57-5.86c-1.74-8.5-3.27-17-5.24-25.5-1.27-5.43.09-10,3.29-14.25.16-.21.32-.44.49-.64a5,5,0,0,0,1.1-5.48c-1.5-4.7-2.69-9.5-3.88-14.31-2-8.16-4-16.34-4.29-24.81a10.11,10.11,0,0,1,.58-1.48c1.06-1.79,1.83-1.95,3.38-.57a19.55,19.55,0,0,1,2,2.42c5.9,9.88,8.83,21,12.83,31.67.87-4.31,1.35-8.55,2-12.73,1-6.17,2.09-12.34,4.44-18.19a3,3,0,0,1,.16-.36c.83-1.62,1.55-3.73,3.67-3.62s2.38,2.45,3,4.11c.68,12.42-1.79,24.46-4.26,36.51-.72,3.51-.76,3.48,2.53,5,5.72,2.6,11.4,5.3,17.15,7.84a3.37,3.37,0,0,1,2.3,3.34,30.37,30.37,0,0,1-1.46,9.87,238.25,238.25,0,0,1-9.94,27.07,22.19,22.19,0,0,0-1.66,7.75c-.69,11.06-1.07,22.13-2.11,33.18-.44,4.65-.55,9.33-.91,14-.93,12.12-1.91,24.22-3.16,36.29-.92,9-1.64,18.08-2.63,27.1-1.06,9.55-2.34,19.08-3.48,28.61-.32,2.64-.52,5.32-.78,8-1.67,7.42-2.43,15-3.67,22.48-3.92,23.74-8.44,47.33-16,70.23a216.48,216.48,0,0,1-11.89,27.61c-12.79,25.78-27.22,50.63-42.26,75.16s-30.83,48.86-47,72.79c-4.87,7.21-9.84,14.33-14.78,21.48C447.69,742.39,447.17,743.37,446,743.65Z" transform="translate(98.75 -0.3)"/><path class="cls-5" d="M239.47,799.89c-9.45-5.47-15-14.36-20.06-23.49-9-16.18-15.73-33.38-21.89-50.8-9.9-28-18.09-56.5-25.65-85.21q-8.61-32.76-16.11-65.79c-2.39-10.55-4.67-21.13-7-31.69a3.66,3.66,0,0,0-.69-1.84c-.92-6.33-2-12.57-4.87-18.46-4.31-8.89-8.15-18-12.19-27-4.51-10.87-9-21.75-13.56-32.6-8-19-13-38.74-17-58.87-5-25.72-9.66-51.53-13.7-77.42a11.48,11.48,0,0,0-2.48-5.37q-9.45-12.22-18.78-24.57c-1.85-2.44-3.35-5.19-5.34-7.53-3.43-4-3.18-7.93-.32-12,1.6-2.3,3-4.74,4.84-6.89,1.46-1.74,1.4-3.13.33-5a187.31,187.31,0,0,1-12-24.95,21.12,21.12,0,0,1-1.82-7.76c0-2.43,1.33-3.14,3.39-1.81a22.27,22.27,0,0,1,5.34,5.4,153.63,153.63,0,0,1,11,16.77c.79,1.37,1.63,2.7,2.73,4.53a7.38,7.38,0,0,0-.09-4.19c-1.06-6.48-2.16-12.94-2.06-19.54a16.91,16.91,0,0,1,.66-5.15c.44-1.32.93-2.6,2.54-2.75s2.37,1.06,3,2.21a19.09,19.09,0,0,1,1.89,4.85,111,111,0,0,1,3,19c.38,4,.67,8,.78,12a3.21,3.21,0,0,0,2.22,3.31,141.9,141.9,0,0,0,15.46,5.6c4.74,1.38,6.09,3,6.48,7.88a64.31,64.31,0,0,1-1.1,15.17c-1,6.2-1.92,12.42-3.13,18.59a11.83,11.83,0,0,0,1.65,8.42c7,12.37,13.82,24.78,20.84,37.1,34.34,60.37,68.54,120.8,100.93,182.23,8.36,15.86,16.43,31.87,24.65,47.8.74,1.42,1.61,2.78,2.4,4.15.19.43.4.81.93.82l0,0c-.37,1.45.51,2.57,1.07,3.75,3.7,7.71,7.5,15.38,11.13,23.13,6.29,13.44,12.49,26.92,17.78,40.78a7,7,0,0,0,2.18,3.61c-.12-1.22-.12-2-.28-2.8-2.73-12.37-5.58-24.74-8.2-37.14-1.32-6.25-2.86-12.47-3.59-18.85-1.19-6.3-2.43-12.6-3.55-18.91-1.79-10.15-3.57-20.3-3.83-30.64a63.09,63.09,0,0,1,.22-8c.46-4.18,2-5.5,6.32-5.66,5.18-.2,9.68,1.74,13.81,4.66a14.71,14.71,0,0,1,2.46,2c1.13,1.24,1.94.88,2.94-.2a117.52,117.52,0,0,0,8.38-10.26c9.54-12.75,17.26-26.45,21.41-42a69.15,69.15,0,0,0,1.73-29.43,9.26,9.26,0,0,1,0-1.42c1.65.45,2.22,1.89,3.11,2.91,13.11,14.91,28.71,26,48,31.48a77.47,77.47,0,0,0,21.4,3c1.74,0,3.48.08,5.22.11a227.4,227.4,0,0,1,2.38,24.69,296.26,296.26,0,0,1,.08,31.68,81.33,81.33,0,0,1-3.81,22c-1.41,4.23-3.11,8.5-6.9,11a225.34,225.34,0,0,1-20.93,12.5c-1.74,0-3.48,0-5.2,0-3.07-.06-6.17.31-9.2-.3-8-1.6-15.11-5-22-9.2-3.22-1.94-5.54-5-9-6.59a1.38,1.38,0,0,0-.14-.27c0-.05-.14,0-.21-.05l.34.32c-.28,2.67.92,4.93,2,7.2a205.78,205.78,0,0,0,14.85,24.56c4.57,6.68,9,13.47,14.33,19.57.21,10.75,2.3,21,7.38,30.62,0,.27,0,.54,0,.82q-36.12,0-72.24,0c-5.77,0-5.26-.16-3.68,4.83,4.83,15.32,7.15,31,5.86,47-1.5,18.68-7.84,35.61-19.64,50.36a79.08,79.08,0,0,1-21.85,19.22C250.17,798,245.22,800.33,239.47,799.89Zm47.76-132c0,.09-.1.2-.09.28.07.36.2.37.34,0a.41.41,0,0,0-.05-.3S287.29,667.85,287.23,667.84Z" transform="translate(98.75 -0.3)"/></svg>