<svg width="375" height="667" viewBox="0 0 375 667" fill="none" xmlns="http://www.w3.org/2000/svg">
<path opacity="0.5" fill-rule="evenodd" clip-rule="evenodd" d="M375.5 183C407.256 183 433 157.256 433 125.5C433 93.7436 407.256 68 375.5 68C343.744 68 318 93.7436 318 125.5C318 157.256 343.744 183 375.5 183Z" stroke="#DFDFE4"/>
<path opacity="0.5" fill-rule="evenodd" clip-rule="evenodd" d="M285 63C294.389 63 302 55.3888 302 46C302 36.6112 294.389 29 285 29C275.611 29 268 36.6112 268 46C268 55.3888 275.611 63 285 63Z" stroke="#DFDFE4"/>
<path opacity="0.5" fill-rule="evenodd" clip-rule="evenodd" d="M215.5 104C219.642 104 223 100.642 223 96.5C223 92.3579 219.642 89 215.5 89C211.358 89 208 92.3579 208 96.5C208 100.642 211.358 104 215.5 104Z" stroke="#DFDFE4"/>
<path opacity="0.5" fill-rule="evenodd" clip-rule="evenodd" d="M97.5 59C124.838 59 147 36.8381 147 9.5C147 -17.8381 124.838 -40 97.5 -40C70.1619 -40 48 -17.8381 48 9.5C48 36.8381 70.1619 59 97.5 59Z" stroke="#DFDFE4"/>
<path opacity="0.5" fill-rule="evenodd" clip-rule="evenodd" d="M363.5 537C390.838 537 413 514.838 413 487.5C413 460.162 390.838 438 363.5 438C336.162 438 314 460.162 314 487.5C314 514.838 336.162 537 363.5 537Z" stroke="#DFDFE4"/>
<path opacity="0.5" fill-rule="evenodd" clip-rule="evenodd" d="M14.5 584C29.6878 584 42 571.688 42 556.5C42 541.312 29.6878 529 14.5 529C-0.687831 529 -13 541.312 -13 556.5C-13 571.688 -0.687831 584 14.5 584Z" stroke="#DFDFE4"/>
<path opacity="0.5" fill-rule="evenodd" clip-rule="evenodd" d="M364.5 694C379.688 694 392 681.688 392 666.5C392 651.312 379.688 639 364.5 639C349.312 639 337 651.312 337 666.5C337 681.688 349.312 694 364.5 694Z" stroke="#DFDFE4"/>
<path fill-rule="evenodd" clip-rule="evenodd" d="M221 571C230.389 571 238 563.389 238 554C238 544.611 230.389 537 221 537C211.611 537 204 544.611 204 554C204 563.389 211.611 571 221 571Z" stroke="#DFDFE4"/>
<path fill-rule="evenodd" clip-rule="evenodd" d="M239 475C243.971 475 248 470.971 248 466C248 461.029 243.971 457 239 457C234.029 457 230 461.029 230 466C230 470.971 234.029 475 239 475Z" stroke="#DFDFE4"/>
<path fill-rule="evenodd" clip-rule="evenodd" d="M116 559C119.314 559 122 556.314 122 553C122 549.686 119.314 547 116 547C112.686 547 110 549.686 110 553C110 556.314 112.686 559 116 559Z" stroke="#DFDFE4"/>
</svg>
